<svg height="495pt" viewBox="-47 0 495 495.96" width="495pt" xmlns="http://www.w3.org/2000/svg"><g fill="#57a4ff"><path d="m312.535156 7.960938h-.054687l9.511719 9.511718zm0 0"/><path d="m216.535156 39.960938h-.054687l9.511719 9.511718zm0 0"/><path d="m296.480469 120.390625-.433594-.429687h-79.566406v-80h-208v448h288zm-256 335.570313v-32l32 32zm0 0"/><path d="m296.480469 119.960938-70.488281-70.488282 70.054687 70.488282zm0 0"/><path d="m296.046875 119.960938-70.054687-70.488282-9.511719-9.511718v80zm0 0"/><path d="m312.480469 7.960938v80h79.566406l-70.054687-70.488282zm0 0"/><path d="m321.992188 17.472656 70.054687 70.488282h.433594zm0 0"/><path d="m40.480469 455.960938h32l-32-32zm0 0"/></g><path d="m8.480469 495.960938h288c4.417969 0 8-3.582032 8-8v-367.570313c0-.117187-.0625-.230469-.074219-.351563.050781-2.140624-.769531-4.207031-2.269531-5.734374l-79.929688-80c-.152343-.152344-.367187-.214844-.535156-.359376-.53125-.472656-1.121094-.871093-1.761719-1.183593-.296875-.128907-.605468-.238281-.917968-.328125-.632813-.210938-1.289063-.339844-1.953126-.386719-.175781 0-.328124-.101563-.503906-.101563h-208.054687c-2.125 0-4.164063.84375-5.664063 2.347657-1.5 1.503906-2.339844 3.542969-2.335937 5.667969v448c0 4.417968 3.582031 8 8 8zm216-436.65625 52.34375 52.65625h-52.34375zm-208-11.34375h192v72c0 4.417968 3.582031 8 8 8h72v352h-272zm0 0" fill="#004fac"/><path d="m318.207031 2.359375c-.152343-.152344-.367187-.214844-.527343-.351563-.53125-.472656-1.128907-.875-1.769532-1.191406-.292968-.125-.59375-.230468-.902344-.320312-.640624-.21875-1.308593-.355469-1.984374-.3984378-.167969 0-.320313-.0976562-.488282-.0976562h-208.054687c-4.417969 0-8 3.582031-8 8v8.121094c0 4.417968 3.582031 8 8 8s8-3.582032 8-8l192-.160156v72c0 4.417968 3.582031 8 8 8h72v352h-46.3125c-4.417969 0-8 3.582031-8 8 0 4.417968 3.582031 8 8 8h54.3125c4.417969 0 8-3.582032 8-8v-367.570313c0-.117187-.0625-.230469-.074219-.351563.050781-2.140624-.769531-4.207031-2.269531-5.734374zm2.273438 24.945313 52.34375 52.65625h-52.34375zm0 0" fill="#004fac"/><path d="m72.480469 447.960938h-8l-16-16v-8c0-4.417969-3.582031-8-8-8s-8 3.582031-8 8v32c0 4.417968 3.582031 8 8 8h32c4.417969 0 8-3.582032 8-8 0-4.417969-3.582031-8-8-8zm0 0" fill="#004fac"/></svg>